<svg width="390" height="555" viewBox="0 0 390 555" fill="none" xmlns="http://www.w3.org/2000/svg">
<g clip-path="url(#clip0_1834_19270)">
<path d="M159.896 389.89L96.1796 528.277L1259.31 541.695L1169.13 361.106C1154.86 332.547 1125.69 314.503 1093.76 314.503H1019.34C997.014 314.503 975.601 305.64 959.806 289.863L830.155 160.352C814.36 144.574 792.947 135.711 770.622 135.711H702.446C680.121 135.711 658.708 144.574 642.914 160.352L572.924 230.265C557.129 246.043 535.716 254.906 513.391 254.906H436.413C414.087 254.906 392.675 263.768 376.88 279.546L340.145 316.242C324.349 332.02 302.937 340.882 280.612 340.882H236.413C203.528 340.882 173.65 360.019 159.896 389.89Z" fill="#001D08"/>
<rect x="290.258" y="269.312" width="1.3436" height="71.8828" rx="0.671802" fill="#001D08"/>
<circle cx="290.93" cy="266.289" r="1.3436" fill="#001D08"/>
<path d="M289.25 262.258L290.258 263.266H291.601L292.609 262.258L290.93 235.386L289.25 262.258Z" fill="#001D08"/>
<path d="M288.279 269.759L288.648 268.382L287.976 267.219L286.599 266.85L264.167 281.741L288.279 269.759Z" fill="#001D08"/>
<path d="M295.319 266.961L293.942 267.33L293.271 268.493L293.639 269.87L317.751 281.851L295.319 266.961Z" fill="#001D08"/>
<path d="M259.991 242.68C261.333 240.979 264.196 241.627 265.627 241.708C260.528 241.708 260.26 245.354 259.991 245.354C259.133 242.437 256.234 241.708 254.893 241.708C258.113 241.465 259.276 241.87 259.991 242.68Z" fill="#001D08"/>
<path d="M263.576 261.384C264.247 260.364 265.678 260.752 266.393 260.801C263.844 260.801 263.71 262.988 263.576 262.988C263.146 261.239 261.697 260.801 261.026 260.801C262.637 260.655 263.218 260.898 263.576 261.384Z" fill="#001D08"/>
<path d="M223.801 266.61C225.91 263.548 230.408 264.715 232.657 264.861C224.645 264.86 224.223 271.423 223.801 271.423C222.452 266.173 217.898 264.861 215.789 264.861C220.849 264.423 222.677 265.152 223.801 266.61Z" fill="#001D08"/>
<rect x="296.859" y="320.493" width="9.81415" height="13.1878" rx="4.90707" fill="#001D08"/>
<rect x="301.46" y="331.534" width="0.613384" height="7.36061" fill="#001D08"/>
<rect x="314.697" y="325.094" width="4.49816" height="6.0444" rx="2.24908" fill="#001D08"/>
<rect x="316.806" y="330.154" width="0.281135" height="3.37362" fill="#001D08"/>
<rect x="227.035" y="331.228" width="5.72493" height="7.69287" rx="2.86246" fill="#001D08"/>
<rect x="229.719" y="337.668" width="0.357808" height="4.29369" fill="#001D08"/>
<path d="M252.943 325.094H274.069L268.436 330.728H247.226L252.943 325.094Z" fill="#001D08"/>
<path d="M279.62 330.645V341.664H268.435V330.728L274.069 325.094L279.62 330.645Z" fill="#00350F"/>
<path d="M268.435 330.728H247.225V341.664H268.435V330.728Z" fill="#001D08"/>
<path d="M403.321 422.255L437.375 456.204H-491.136L-439.372 404.599C-423.797 389.071 -402.7 380.352 -380.707 380.352H-327.87C-314.058 380.352 -300.464 376.909 -288.318 370.334L-104.251 270.706C-92.1039 264.131 -78.5098 260.688 -64.6978 260.688H-27.6033C-5.60989 260.688 15.4865 269.408 31.062 284.936L72.2935 326.041C81.5585 335.277 94.1075 340.464 107.19 340.464C120.273 340.464 132.822 345.651 142.087 354.887L161.017 373.76C176.593 389.288 197.689 398.007 219.683 398.007H344.655C366.649 398.007 387.745 406.727 403.321 422.255Z" fill="#00350F"/>
<path d="M316.542 377.998H342.557L335.619 384.935H309.503L316.542 377.998Z" fill="#00350F"/>
<path d="M349.393 384.833V398.402H335.62V384.935L342.557 377.998L349.393 384.833Z" fill="#005418"/>
<path d="M335.62 384.935H309.503V398.402H335.62V384.935Z" fill="#00350F"/>
<rect x="88.5117" y="310.526" width="15.5391" height="20.8806" rx="7.76953" fill="#00350F"/>
<rect x="95.7959" y="328.007" width="0.971192" height="11.6543" fill="#00350F"/>
<rect x="127.411" y="325.094" width="12.6766" height="17.0342" rx="6.3383" fill="#00350F"/>
<rect x="133.354" y="339.355" width="0.792288" height="9.50746" fill="#00350F"/>
<rect x="1.82031" y="245.354" width="13.9034" height="18.6827" rx="6.95169" fill="#00350F"/>
<rect x="8.33789" y="260.995" width="0.868961" height="10.4275" fill="#00350F"/>
<g opacity="0.02">
<rect x="133.749" y="202.417" width="9.81415" height="13.1878" rx="4.90707" fill="#EAFFE1"/>
<rect x="138.35" y="213.458" width="0.613384" height="7.36061" fill="#EAFFE1"/>
<rect x="244.925" y="187.082" width="9.81415" height="13.1878" rx="4.90707" fill="#EAFFE1"/>
<rect x="249.525" y="198.123" width="0.613384" height="7.36061" fill="#EAFFE1"/>
<rect x="65.5098" y="263.755" width="9.81415" height="13.1878" rx="4.90707" fill="#EAFFE1"/>
<rect x="70.1104" y="274.796" width="0.613384" height="7.36061" fill="#EAFFE1"/>
<rect x="292.667" y="190.916" width="4.49816" height="6.0444" rx="2.24908" fill="#EAFFE1"/>
<rect x="294.775" y="195.976" width="0.281135" height="3.37362" fill="#EAFFE1"/>
<rect x="156.751" y="202.417" width="4.49816" height="6.0444" rx="2.24908" fill="#EAFFE1"/>
<rect x="158.859" y="207.477" width="0.281135" height="3.37362" fill="#EAFFE1"/>
<rect x="47.875" y="280.623" width="4.49816" height="6.0444" rx="2.24908" fill="#EAFFE1"/>
<rect x="49.9834" y="285.684" width="0.281135" height="3.37362" fill="#EAFFE1"/>
</g>
<circle cx="266.394" cy="456.971" r="21.4685" fill="#007220"/>
<ellipse cx="239.942" cy="456.971" rx="9.58413" ry="9.96749" fill="#007220"/>
<circle cx="28.9108" cy="28.9108" r="28.9108" transform="matrix(-1 0 0 1 361.785 427.835)" fill="#007220"/>
<ellipse cx="12.9066" cy="13.4229" rx="12.9066" ry="13.4229" transform="matrix(-1 0 0 1 381.403 443.323)" fill="#007220"/>
<path d="M39.2168 401.767H109.223L90.5544 420.435H20.2741L39.2168 401.767Z" fill="#005418"/>
<path d="M127.616 420.161V456.673H90.5543V420.435L109.223 401.767L127.616 420.161Z" fill="#007220"/>
<path d="M90.5537 420.435H20.2734V456.673H90.5537V420.435Z" fill="#005418"/>
<rect x="196.622" y="384.899" width="38.3365" height="51.5147" rx="19.1683" fill="#007220"/>
<rect x="214.593" y="428.027" width="2.39603" height="28.7524" fill="#007220"/>
<rect x="136.816" y="423.235" width="18.4015" height="24.7271" rx="9.20076" fill="#007220"/>
<rect x="145.442" y="443.937" width="1.1501" height="13.8011" fill="#007220"/>
<rect x="281.729" y="414.801" width="21.9796" height="29.5351" rx="10.9898" fill="#007220"/>
<rect x="292.031" y="439.528" width="1.37373" height="16.4847" fill="#007220"/>
<circle cx="20.2725" cy="453.904" r="17.6348" fill="#007220"/>
<circle cx="-0.812355" cy="455.821" r="9.58413" fill="#007220"/>
<circle cx="40.5913" cy="454.288" r="5.75048" fill="#007220"/>
<rect x="-124.639" y="456.205" width="601.117" height="103.509" fill="#00611B"/>
</g>
<defs>
<clipPath id="clip0_1834_19270">
<rect width="467.706" height="559.713" fill="white" transform="translate(-61)"/>
</clipPath>
</defs>
</svg>
